<svg width="100" height="72" viewBox="0 0 100 72" fill="none" xmlns="http://www.w3.org/2000/svg">
<path d="M0 62.884C0.572777 62.4674 0.765625 63.0277 1.0736 63.2977C3.85977 65.7369 7.09207 67.0268 10.7964 66.5528C14.5353 66.073 17.9 64.5159 20.9625 62.3295C21.3539 62.0509 21.7195 61.7348 22.0793 61.4188C22.3671 61.166 22.6348 60.9333 23.0377 61.4188C22.1282 62.4272 20.9366 63.1081 19.8198 63.8005C17.7906 65.0589 15.629 66.1219 13.2832 66.6993C9.69979 67.5784 6.27752 67.2797 3.00204 65.4237C1.9083 64.806 1.05345 63.9154 0 63.2776V62.8869V62.884Z" fill="#FFC400"/>
<path d="M0 58.5918C0.523847 58.4108 0.664882 58.8705 0.854849 59.1521C2.22203 61.1689 4.07564 62.4875 6.36099 63.3322C8.47653 64.1136 10.5892 63.9298 12.65 63.4184C14.4892 62.9616 16.3198 62.341 17.9662 61.3269C18.3318 61.1028 18.6196 61.0425 18.7088 61.7262C15.9456 63.0133 13.1336 64.2085 9.90415 64.2803C5.65869 64.3751 2.46956 62.6944 0.230259 59.1348C0.184206 59.063 0.0777135 59.0314 0 58.9826C0 58.8533 0 58.7211 0 58.5918Z" fill="#FFC400"/>
<path d="M86.3973 57.6552C87.3097 57.7299 88.2221 57.7587 89.1287 57.6035C89.6584 57.9023 90.1937 57.6035 90.7204 57.592C93.1353 57.5518 95.5588 57.7931 97.9708 57.4455C98.3853 57.3852 98.8717 57.2473 99.266 57.5949C96.4453 58.2528 93.6246 58.905 90.8068 59.5715C88.6366 60.0829 86.4721 60.6144 84.299 61.1258C80.9516 61.9129 77.6013 62.6772 74.2567 63.4787C71.1654 64.2199 68.0857 65.0186 64.9915 65.757C62.0816 66.4493 59.1544 67.0785 56.2415 67.7594C52.897 68.5409 49.5611 69.3453 46.2223 70.144C44.2161 70.6237 42.2128 71.1093 40.2124 71.6092C39.8181 71.7068 39.608 71.6207 39.4986 71.2184C38.9776 69.2907 38.3099 67.4118 37.5443 65.5673C36.9225 64.0763 36.3296 62.5708 35.5295 61.1602C35.1697 60.5253 34.8732 59.853 34.548 59.198C34.8559 58.8446 35.2733 58.994 35.6388 58.994C38.6956 58.9739 41.7581 59.0659 44.8033 58.6981C45.5631 58.7067 46.323 58.7154 47.0857 58.724C47.2297 58.7211 47.3736 58.7154 47.5204 58.7125C47.6959 58.7154 47.8715 58.7182 48.0471 58.7211C48.9566 58.9279 49.8489 58.6091 50.744 58.6205C54.575 58.6723 58.4002 58.4683 62.2255 58.3936C64.4936 58.3505 66.7616 58.2413 69.0269 58.1609C69.3722 58.2356 69.6946 58.1896 69.9681 57.9483C70.1868 58.3907 70.5955 58.181 70.9179 58.1982C72.9902 58.3131 75.0425 57.8879 77.1177 58C80.0651 58.1609 82.998 57.6955 85.9454 57.7903C86.095 57.796 86.2447 57.7069 86.3973 57.661V57.6552Z" fill="#D1D3C8"/>
<path d="M41.8185 38.4956C40.506 36.7058 39.7605 34.6171 38.756 32.6635C37.3284 29.8882 35.99 27.0641 34.6113 24.263C34.8818 24.1998 35.1121 24.3061 35.351 24.4239C36.5426 25.0042 37.7515 25.553 38.9344 26.1477C40.3131 26.8429 41.6717 27.5755 43.0389 28.2909C43.1943 28.4317 43.3468 28.581 43.5886 28.515C43.744 28.7908 44.0405 28.8511 44.2996 28.966C46.1273 29.7733 47.9089 30.6726 49.633 31.6867C49.7222 31.8936 49.8921 31.7988 50.0388 31.7959C50.0935 31.8706 50.1281 31.9769 50.2029 32.0171C52.3789 33.2582 54.6873 34.2436 56.8949 35.4359C58.9212 36.5305 61.0051 37.5878 63.1465 38.4899C63.3307 38.7685 63.6416 38.7427 63.915 38.8059C64.0474 39.1104 64.3612 39.1679 64.6116 39.2972C67.2711 40.6647 69.9277 42.0322 72.5959 43.3796C74.2192 44.1984 75.857 44.9827 77.489 45.7843C77.6127 46.1377 77.9121 46.1003 78.1942 46.1032C78.3237 46.3618 78.5942 46.4163 78.8216 46.5313C83.9968 49.183 89.1777 51.8319 94.3528 54.4865C94.9947 54.814 95.6192 55.176 96.3014 55.5495C95.7488 55.8138 95.3602 55.5523 94.9745 55.4345C93.403 54.9461 91.8487 54.4032 90.2829 53.9033C86.8405 52.8029 83.3981 51.7055 79.947 50.631C78.5309 50.1914 77.0946 49.8122 75.6699 49.4071C75.526 49.1658 75.29 49.2146 75.0683 49.2146C74.1329 48.8871 73.2032 48.5423 72.2591 48.2378C69.9277 47.4851 67.6078 46.6778 65.2477 46.0285C63.3192 45.497 61.4742 44.6753 59.4911 44.3363C59.2551 44.1467 59.0277 43.9341 58.6852 44.0347C57.2748 43.3768 55.7436 43.0808 54.2728 42.5924C51.1844 41.5697 48.0672 40.6388 44.9616 39.6706C44.7773 39.6218 44.5931 39.5701 44.4089 39.5213C43.5483 39.1794 42.6877 38.8375 41.8242 38.4956H41.8185Z" fill="#D1D3C8"/>
<path d="M75.6613 49.4071C77.0889 49.8122 78.5223 50.1914 79.9384 50.631C83.3894 51.7055 86.8319 52.8029 90.2743 53.9033C91.8429 54.4032 93.3972 54.9461 94.9659 55.4345C95.3515 55.5552 95.743 55.8166 96.2928 55.5495C95.6106 55.176 94.986 54.814 94.3442 54.4865C89.169 51.8319 83.991 49.183 78.813 46.5313C78.5885 46.4163 78.315 46.3618 78.1855 46.1032C78.7842 44.7615 79.7945 43.6899 80.5687 42.4632C80.7875 42.1184 81.0753 42.1787 81.4092 42.3741C85.8475 44.9483 90.2944 47.5052 94.7327 50.0822C95.0321 50.2575 95.3026 50.5304 95.5041 50.8148C97.0152 52.9638 98.5033 55.1243 100 57.2847C99.7582 57.4801 99.5567 57.6438 99.266 57.5893C98.8717 57.2445 98.3853 57.3795 97.9708 57.4399C95.5588 57.7875 93.1353 57.5462 90.7204 57.5864C90.1937 57.595 89.6554 57.8967 89.1287 57.5979C86.0259 56.8883 82.926 56.1556 79.8175 55.4719C77.5494 54.9749 75.3015 54.3744 72.9989 54.0297C72.9183 54.0182 72.8549 53.9061 72.7024 53.7711C73.6839 52.3203 74.6711 50.8608 75.6584 49.4042L75.6613 49.4071Z" fill="#F3F0E4"/>
<path d="M73.1629 25.6994C71.1193 28.3138 69.1477 30.8391 67.1157 33.442C62.6946 30.8851 58.288 28.3396 53.7777 25.7339C54.5807 24.4439 55.3608 23.1913 56.1379 21.9387C56.8747 20.7521 57.6519 19.5915 58.3311 18.3733C58.7168 17.6838 59.0536 17.5373 59.7703 17.9596C63.7222 20.2781 67.6971 22.5535 71.6662 24.8432C72.1152 25.1018 72.5613 25.3575 73.1629 25.7022V25.6994Z" fill="#F3F0E4"/>
<path d="M80.5256 41.2019C76.2974 38.7599 72.026 36.2949 67.6136 33.7437C69.6428 31.1466 71.6404 28.5868 73.6782 25.9781C76.1765 27.4261 78.6403 28.8051 81.0466 30.2761C81.9158 30.8076 82.241 31.8677 82.8656 32.6491C83.3492 33.2582 83.6917 33.9822 84.1983 34.5654C84.6933 35.1371 84.7106 35.5709 84.2616 36.18C83.165 37.6682 82.1374 39.2081 81.0811 40.7279C80.9516 40.9146 80.8307 41.11 80.5256 41.2019Z" fill="#F3F0E4"/>
<path d="M73.5256 25.2311C68.7477 22.4731 64.0302 19.7495 59.235 16.98C61.1893 13.8399 63.1149 10.7486 65.2333 7.34412C65.5557 7.83252 65.7284 8.10832 65.9155 8.37551C69.0902 12.9176 72.2649 17.4598 75.4541 21.9962C75.6872 22.3294 75.644 22.5621 75.4051 22.8552C74.7892 23.6079 74.1963 24.3779 73.5285 25.2311H73.5256Z" fill="#F3F0E4"/>
<path d="M69.0298 58.1552C66.7617 58.2357 64.4965 58.3448 62.2284 58.3879C58.4003 58.4598 54.5779 58.6666 50.747 58.6149C49.8518 58.6034 48.9595 58.9223 48.05 58.7154C49.9237 56.0177 52.1372 53.5843 54.0915 50.9498C54.3592 50.5907 54.719 50.5218 55.1334 50.6137C59.8481 51.6623 64.5627 52.6966 69.2715 53.7653C69.9854 53.9262 70.7481 53.9463 71.4302 54.36C70.8229 55.7534 69.6054 56.7532 69.0298 58.1552Z" fill="#F3F0E4"/>
<path d="M47.0828 58.4195C43.1885 57.4599 39.2971 56.5003 35.3222 55.5235C35.7942 54.2882 36.534 53.3775 37.1269 52.3892C38.0278 50.8866 39.0035 49.4272 39.9044 47.9246C40.1779 47.4707 40.5089 47.3758 40.9579 47.4793C43.9254 48.1659 46.9274 48.6917 49.8661 49.5133C50.7613 49.7633 51.6938 49.8811 52.5947 50.1138C53.5043 50.3494 53.5619 50.5476 53.0092 51.2658C51.1758 53.6446 49.4776 56.1269 47.5232 58.4137C47.3764 58.4137 47.2325 58.4166 47.0857 58.4195H47.0828Z" fill="#F3F0E4"/>
<path d="M50.3584 15.1728C49.5841 15.0838 49.5582 15.5377 49.4085 15.8221C48.5364 17.4568 47.6701 19.0944 46.8296 20.7435C46.5533 21.2894 46.3086 21.4416 45.7128 21.0768C44.0003 20.0281 42.2445 19.06 40.4715 18.0401C40.8658 17.3247 41.5134 17.0345 42.02 16.6093C44.0377 14.9172 46.3921 13.7278 48.5825 12.2913C49.6273 11.6046 50.0648 12.6446 50.7959 12.84C50.6951 13.564 50.0619 14.0438 50.0878 14.8022C50.6692 15.0062 50.7441 14.5322 50.9283 14.2334C51.1125 13.9346 51.1988 13.5697 51.6076 13.2681C53.2913 14.2305 55.0154 15.193 56.7136 16.1956C58.4233 17.2069 58.3974 17.2184 57.3324 18.8991C55.9796 21.0365 54.6528 23.1913 53.2654 25.4207C51.1442 24.2054 49.0747 23.0218 46.9131 21.7835C48.0558 19.5886 49.184 17.4166 50.3555 15.17L50.3584 15.1728Z" fill="#F3F0E4"/>
<path d="M22.4794 52.2397C24.1603 49.769 25.8009 47.3528 27.4473 44.9453C27.5912 44.7355 27.7668 44.5402 28.092 44.6149C31.8798 45.4681 35.6676 46.3128 39.5476 47.1804C38.9287 48.614 38.0422 49.7718 37.3083 51.013C36.5657 52.2713 35.7569 53.4894 34.9797 54.7277C34.7639 55.0724 34.5509 55.3454 34.0472 55.2161C30.3687 54.2795 26.6845 53.363 23.0032 52.4379C22.8564 52.4006 22.7183 52.3316 22.4823 52.2397H22.4794Z" fill="#F3F0E4"/>
<path d="M27.0731 44.4138C26.0139 45.9939 25.0496 47.4448 24.0739 48.887C23.4378 49.8293 22.7758 50.7544 22.1426 51.6968C21.9469 51.9898 21.777 52.1909 21.3626 52.0846C17.6841 51.148 13.9999 50.2287 10.3215 49.3036C10.2323 49.2806 10.1517 49.2117 9.98187 49.114C10.5546 47.801 11.4987 46.7352 12.3449 45.6147C13.1854 44.5029 14.1093 43.4543 14.9843 42.3712C15.2635 42.0264 15.6147 41.9143 16.0263 42.0005C19.6615 42.7877 23.2939 43.5835 27.0731 44.4081V44.4138Z" fill="#F3F0E4"/>
<path d="M44.953 39.6707C48.0587 40.6388 51.1787 41.5697 54.2642 42.5924C55.7321 43.0808 57.2634 43.3768 58.6766 44.0347C57.2749 45.8762 55.8732 47.7149 54.4743 49.5594C54.2527 49.8495 53.9994 49.7806 53.6914 49.7116C50.534 48.9934 47.3765 48.2665 44.2075 47.6086C43.0418 47.3673 41.8847 47.1116 40.6672 46.7669C42.0517 44.3306 43.6837 42.1098 44.9559 39.6735L44.953 39.6707Z" fill="#F3F0E4"/>
<path d="M6.0732 59.7381C6.0329 58.0374 6.50782 56.5607 6.99713 55.1558C7.54112 53.5872 8.12828 51.9984 9.02055 50.5591C9.36306 50.0075 9.63363 49.7345 10.3935 49.9328C13.715 50.8061 17.0625 51.5761 20.3984 52.4006C20.6977 52.4753 21.0604 52.4897 21.2993 52.9264C20.2832 54.4261 19.0859 55.897 18.2253 57.5432C17.3503 59.2153 16.0896 59.5945 14.3655 59.5744C11.9334 59.5485 9.48971 59.4192 7.06044 59.7295C6.77837 59.7669 6.49055 59.7353 6.0732 59.7353V59.7381Z" fill="#F3F0E4"/>
<path d="M41.8185 38.4955C42.6791 38.8374 43.5397 39.1793 44.4032 39.5212C42.9496 41.8971 41.4961 44.2759 40.0368 46.6633C36.0562 45.7871 32.1676 44.9338 28.1841 44.0576C28.5554 43.1325 29.1944 42.4056 29.7153 41.6155C30.7745 40.0182 31.8999 38.4639 32.9361 36.8522C33.3448 36.2173 33.7276 36.0679 34.4558 36.3149C36.5771 37.0303 38.7301 37.6595 40.8658 38.3346C41.1795 38.4352 41.4875 38.5243 41.8185 38.4955Z" fill="#F3F0E4"/>
<path d="M59.4825 44.3363C61.4657 44.6753 63.3078 45.497 65.2391 46.0285C67.5993 46.6778 69.9192 47.4851 72.2506 48.2378C73.1946 48.5423 74.1243 48.8871 75.0598 49.2146C74.1963 50.4959 73.3414 51.7859 72.4578 53.0557C72.1815 53.4522 71.8937 53.7136 71.2604 53.5671C67.772 52.7598 64.2633 52.033 60.7634 51.2745C58.8522 50.8608 56.9439 50.4385 54.8715 49.9845C56.5093 48.0367 57.7671 46.0055 59.4825 44.3392V44.3363Z" fill="#F3F0E4"/>
<path d="M16.2335 41.2766C17.1574 39.955 18.4152 39.03 19.5838 38.0302C21.187 36.6598 22.8679 35.3813 24.5143 34.0626C25.0324 33.6489 25.4986 33.6489 26.1894 33.8443C28.3884 34.4648 30.4982 35.3756 32.7951 35.8266C32.6569 36.4558 32.2309 36.8724 31.9201 37.3406C30.6076 39.3086 29.2577 41.2536 27.9394 43.2187C27.5739 43.7617 27.217 43.9197 26.5032 43.7445C23.3975 42.9802 20.2688 42.3166 17.143 41.6328C16.8264 41.5639 16.5213 41.5265 16.2335 41.2737V41.2766Z" fill="#F3F0E4"/>
<path d="M63.1408 38.4898C60.9993 37.5877 58.9154 36.5305 56.8891 35.4359C54.6815 34.2436 52.3731 33.261 50.1971 32.0171C50.1252 31.974 50.0878 31.8705 50.0331 31.7958C51.0434 30.1382 52.0536 28.4776 53.0668 26.8199C53.2999 26.4378 53.5849 26.274 54.0368 26.5383C58.1901 28.9602 62.3492 31.3706 66.5055 33.7897C66.5544 33.8184 66.5745 33.8931 66.6551 34.0281C65.4981 35.4991 64.318 36.993 63.1408 38.4898Z" fill="#F3F0E4"/>
<path d="M77.4832 45.7842C75.8512 44.9827 74.2106 44.1984 72.5902 43.3796C69.922 42.0322 67.2654 40.6618 64.6058 39.2971C64.3525 39.1678 64.0417 39.1104 63.9093 38.8058C63.8546 38.4237 64.0187 38.1393 64.2633 37.8463C65.0433 36.9154 65.7946 35.9559 66.5544 35.0078C66.92 34.551 67.2567 34.2292 67.9302 34.6228C71.7583 36.8551 75.598 39.0673 79.4606 41.2364C80.2147 41.6616 80.2464 42.0006 79.7542 42.6384C78.9627 43.6611 78.2373 44.7356 77.4832 45.7871V45.7842Z" fill="#F3F0E4"/>
<path d="M34.2083 55.9286C33.5981 56.914 33.034 57.819 32.4756 58.7269C32.1907 59.1894 31.6927 59.0285 31.3157 59.0458C26.8486 59.2641 22.3786 59.4968 17.6841 59.3273C18.6167 57.9339 19.4687 56.6555 20.3235 55.3828C20.4128 55.2477 20.525 55.1271 20.6258 55.0006C21.1611 54.3226 21.3827 53.2424 22.2059 52.9953C23.0061 52.754 23.8955 53.2941 24.7417 53.501C27.7034 54.2221 30.6594 54.9547 33.6183 55.6873C33.7737 55.7246 33.9148 55.808 34.2083 55.9286Z" fill="#F3F0E4"/>
<path d="M43.0389 28.2937C41.6717 27.5783 40.3131 26.8429 38.9344 26.1505C37.7515 25.5529 36.5426 25.007 35.351 24.4267C35.1121 24.3118 34.8847 24.2026 34.6113 24.2658C34.5451 24.0676 34.3724 23.9124 34.594 23.6596C36.1195 21.8985 37.6594 20.1517 39.4842 18.6837C39.7461 18.4739 39.9476 18.3992 40.2585 18.5831C42.1869 19.7179 44.124 20.8355 46.1301 22.0019C45.1976 23.7774 44.288 25.4926 43.3958 27.2163C43.2202 27.5525 42.941 27.8656 43.0389 28.2966V28.2937Z" fill="#F3F0E4"/>
<path d="M64.6173 7.16315C62.3377 10.1338 60.9331 13.6101 58.6766 16.641C56.397 15.331 54.1289 14.0238 51.8752 12.7281C52.2062 10.7141 53.5187 9.75456 55.3406 9.45864C56.5006 9.26903 57.4964 8.67145 58.6276 8.41001C60.5935 7.95608 62.5478 7.45619 64.6173 7.16028V7.16315Z" fill="#F3F0E4"/>
<path d="M81.1905 41.5754C82.5346 39.6419 83.7867 37.8405 85.1309 35.9042C88.13 40.2165 91.0687 44.4397 94.0075 48.6658C93.9441 48.7377 93.8779 48.8066 93.8146 48.8784C89.6354 46.4594 85.4532 44.0404 81.1905 41.5725V41.5754Z" fill="#F3F0E4"/>
<path d="M49.6302 31.6895C47.9061 30.6753 46.1244 29.7761 44.2967 28.9688C44.0405 28.8539 43.7412 28.7964 43.5858 28.5178C43.5512 27.7823 44.0434 27.2565 44.3456 26.6618C45.0738 25.2196 45.8539 23.8032 46.6626 22.2777C48.6947 23.5102 50.6894 24.7226 52.8106 26.0097C52.0047 27.2881 51.1815 28.5752 50.3814 29.8795C50.0389 30.4398 49.61 30.9741 49.6273 31.6866L49.6302 31.6895Z" fill="#F3F0E4"/>
<path d="M86.3972 57.6553C86.2476 57.7013 86.095 57.7903 85.9453 57.7846C82.998 57.6897 80.065 58.1523 77.1177 57.9943C75.0424 57.8822 72.9902 58.3074 70.9178 58.1925C70.5955 58.1753 70.1868 58.385 69.968 57.9426C70.4401 56.7158 71.3266 55.7563 72.0576 54.699C72.285 54.3715 72.6419 54.4606 72.9557 54.5324C75.3763 55.0754 77.794 55.6385 80.2147 56.1757C82.1719 56.6095 84.1378 57.0117 86.0979 57.4369C86.2073 57.4599 86.2936 57.5806 86.3915 57.6524L86.3972 57.6553Z" fill="#F3F0E4"/>
<path d="M44.8062 58.6925C41.7581 59.0602 38.6985 58.9654 35.6417 58.9884C35.2733 58.9884 34.8588 58.839 34.5509 59.1924C34.1508 58.8246 33.6068 59.1206 33.0858 58.8649C33.6212 58.003 34.145 57.1583 34.6717 56.3166C34.8358 56.0522 35.0689 56.0494 35.351 56.1212C38.4193 56.894 41.4904 57.6553 44.5586 58.431C44.6594 58.4569 44.7285 58.6034 44.8091 58.6925H44.8062Z" fill="#F3F0E4"/>
<path d="M74.084 25.5702C74.651 24.6135 75.3274 23.878 76.0527 22.9845C77.5667 24.8634 78.7928 26.8544 80.1485 28.7476C80.0967 28.8166 80.042 28.8855 79.9902 28.9545C78.0531 27.8427 76.1132 26.7308 74.084 25.5673V25.5702Z" fill="#F3F0E4"/>
<path d="M46.9562 4.31028C46.5417 3.85923 46.8296 3.73282 47.1404 3.55757C49.8028 2.06938 52.5833 0.790913 55.6256 0.48638C59.8049 0.0698017 63.8661 0.546708 67.3575 3.23005C67.628 3.43977 67.9389 3.64088 68.1058 4.34763C65.832 2.93988 63.7913 1.62119 61.3044 1.17301C58.7485 0.710466 56.2818 0.842623 53.795 1.41721C51.3514 1.98031 49.1149 3.01745 46.9591 4.31028H46.9562Z" fill="#FFC400"/>
<path d="M69.1103 8.28354C64.1654 2.62383 58.1757 2.48018 51.7111 4.72108C51.36 4.20395 51.8349 4.08329 52.117 3.99135C56.2674 2.64681 60.4409 2.36239 64.5655 4.01722C66.4019 4.75269 67.8583 6.09723 69.1823 7.55669C69.3233 7.71183 69.3089 7.72619 69.1074 8.28354H69.1103Z" fill="#FFC400"/>
<path d="M50.1827 11.5386C50.7814 11.2283 51.2477 10.8347 52.0651 10.8347C51.7802 11.3921 51.5528 11.8374 51.3254 12.2827C50.8246 12.2425 50.5022 12.0069 50.1827 11.5415V11.5386Z" fill="#F3F0E4"/>
<path d="M47.0828 58.4196C47.2296 58.4196 47.3735 58.4138 47.5203 58.4138C47.5203 58.5115 47.5203 58.6092 47.5203 58.704C47.3764 58.7069 47.2325 58.7126 47.0857 58.7155C47.0857 58.6178 47.0828 58.5173 47.08 58.4196H47.0828Z" fill="#F3F0E4"/>
</svg>
