<svg width="100" height="100" viewBox="0 0 100 100" fill="none" xmlns="http://www.w3.org/2000/svg">
<path d="M76.3517 64.0016C77.7107 64.9635 79.3265 65.2832 80.876 65.7239C83.8769 66.5764 86.947 67.0487 90.0546 67.3569C92.8881 67.6363 95.7187 67.4433 98.5465 67.5268C98.8696 67.5355 99.1928 67.5268 99.692 67.5268C99.1178 68.3476 98.6388 69.0619 98.1309 69.756C91.2001 79.197 84.2664 88.6322 77.3385 98.0731C76.7874 98.822 76.2564 99.3577 75.1859 99.4873C73.8211 99.6514 72.4217 99.6284 71.08 99.9999H64.2184C63.1133 99.8098 62.0111 99.5046 60.9002 99.4614C59.091 99.3894 57.4405 98.7845 55.7439 98.2661C49.0295 96.2097 43.778 92.1747 39.6489 86.5844C39.4758 86.3483 39.2882 86.1207 39.1093 85.8903C38.4053 84.7239 37.7012 83.5574 37.0001 82.3881C36.6509 81.5039 36.322 80.6082 35.9382 79.7413C35.7363 79.2863 35.8199 79.0616 36.2672 78.8283C37.0001 78.4453 37.681 77.97 38.3995 77.5582C40.9502 76.0951 43.5644 74.7271 46.0488 73.1603C49.0583 71.2594 52.1284 69.4651 55.187 67.6478C59.3103 65.1997 63.4624 62.7977 67.5886 60.3525C68.9274 59.5576 68.9015 59.5317 70.0095 60.4821C70.2749 60.7096 70.5923 60.8795 70.8838 61.0754C71.5301 61.5276 72.1303 62.0719 72.8285 62.4146C73.9827 62.9791 74.9667 63.9411 76.3488 63.9958L76.3517 64.0016ZM79.8084 73.0508C79.0928 72.9241 62.4496 88.9951 59.7489 92.1113C60.3057 92.7536 60.6001 92.143 60.9059 91.8406C66.2988 86.4807 71.683 81.1122 77.0701 75.7466C77.9762 74.8423 78.8937 73.9494 79.8084 73.0508ZM51.459 87.7163C51.7273 88.0677 51.8716 88.1426 52.0765 87.9669C59.0275 82.0771 65.9785 76.1902 72.9411 70.2946C72.6612 70.0066 72.4044 69.972 72.2832 70.0728C65.3351 75.9453 58.3985 81.8294 51.4619 87.7134L51.459 87.7163ZM81.9956 74.9632C81.5483 74.321 81.3348 74.7847 81.0896 75.0554C78.6341 77.7656 76.1843 80.4844 73.7201 83.1859C71.559 85.5562 69.3458 87.8805 67.225 90.2854C66.4229 91.1955 65.5515 92.0509 64.7262 92.984C65.1475 93.2835 65.4332 93.3383 65.7131 92.9725C66.0276 92.5635 66.3392 92.1459 66.6941 91.7744C69.2217 89.1247 71.6224 86.3627 74.0693 83.6381C76.6864 80.7205 79.3554 77.8491 81.9956 74.9603V74.9632ZM43.651 81.3426C43.6395 81.5961 43.8761 81.7833 43.9078 81.7603C50.7578 77.3739 57.3049 72.5468 64.1088 67.9992C63.8491 67.6651 63.7596 67.4058 63.3153 67.7227C61.2666 69.1829 59.1833 70.597 57.1145 72.0284C52.6161 75.1389 48.1177 78.2494 43.6481 81.3426H43.651ZM46.4355 84.3034C48.6428 82.6502 50.8992 81.0662 53.0345 79.3352C55.1466 77.6216 57.5069 76.1873 59.2728 74.0589C58.1936 74.5831 57.2183 75.2311 56.2892 75.9453C54.0184 77.6907 51.7735 79.4677 49.5113 81.2246C48.5793 81.9475 47.6127 82.6301 46.7009 83.376C46.4499 83.5805 45.8151 83.8253 46.4326 84.3034H46.4355ZM63.65 82.2153C62.0572 83.5632 60.4587 84.8621 58.9294 86.2331C58.0176 87.051 57.1058 87.8632 56.1421 88.6178C55.9689 88.7531 55.6256 88.9087 55.8766 89.2341C56.1421 89.5769 56.4075 89.2629 56.5893 89.1333C56.9038 88.9115 57.1318 88.5717 57.4261 88.3211C59.5094 86.5556 61.6013 84.8016 63.6875 83.039C64.0453 82.7366 64.178 82.4342 63.6442 82.2153H63.65Z" fill="#FFC400"/>
<path d="M37.0029 82.3967C37.707 83.5632 38.411 84.7296 39.1122 85.8989C37.3809 86.8551 35.7218 87.9495 33.8462 88.6292C33.9645 87.4138 33.3182 86.2071 33.8203 84.9859C33.8607 84.888 33.8001 84.7296 33.7481 84.6144C33.171 83.3241 33.3211 81.9157 33.1249 80.5678C32.9835 79.6174 32.7815 78.6641 32.6401 77.7165C32.5536 77.1348 32.3747 76.6163 32.669 76.0317C32.1554 75.8128 32.0255 75.3837 31.8842 74.9574C31.5754 74.03 31.4831 73.0623 31.1051 72.1263C29.9798 69.3326 28.8919 66.5418 27.3627 63.9295C24.2666 58.6359 20.0596 54.4655 14.6927 51.5105C10.2376 49.0567 5.41603 47.7549 0.346313 47.3632C2.55079 45.8598 4.91974 44.6242 7.21367 43.2677C7.29157 43.2216 7.34927 43.1381 7.41563 43.0718C8.07351 42.9249 8.59579 42.5304 9.12383 42.1416C9.34023 42.0465 9.55375 41.9544 9.77016 41.8593C10.8118 41.5339 11.6255 40.5921 12.8403 40.7274C13.2038 40.8426 13.5212 41.05 13.9136 41.1393C16.4932 41.7412 18.9747 42.6686 21.3061 43.8927C23.978 45.2953 26.422 47.0492 28.462 49.3245C30.9146 52.0577 32.6372 55.1625 33.6847 58.6791C33.9011 59.4049 33.8491 60.2545 34.4002 60.9083C34.5647 60.8593 34.6888 60.8363 34.8042 60.7873C39.0343 59.042 43.2672 57.2995 47.4944 55.5427C50.7145 54.2034 53.9231 52.8382 57.1404 51.4932C61.0617 49.8545 64.983 48.2214 68.9158 46.6086C69.3862 46.4156 69.5333 46.1449 69.5247 45.6668C69.5102 44.6645 69.4237 43.668 69.3544 42.6715C69.2188 40.7101 68.8956 38.792 68.2926 36.9372C66.4863 31.3786 62.9805 27.3926 57.3856 25.3506C56.9124 25.1778 56.2546 25.2815 55.9602 24.6882C57.0654 24.259 58.2051 24.573 59.3275 24.524C58.9553 25.1835 59.6594 25.1288 59.8873 25.2383C62.6314 26.5487 64.9628 28.32 66.7922 30.7882C68.5378 33.1384 69.5016 35.7823 70.0816 38.5875C70.6327 41.2631 70.6298 43.9762 70.2864 46.6835C70.2258 47.1501 70.0412 47.5245 69.4814 47.7174C68.3359 48.1091 67.2279 48.6189 66.1083 49.0855C61.3762 51.0555 56.6527 53.0456 51.912 54.9954C47.7079 56.7235 43.4836 58.4055 39.268 60.1105C37.4848 60.8334 35.7073 61.5621 33.7654 62.3541C30.7213 50.442 22.694 44.0827 11.1609 41.4388C11.0138 42.179 11.4524 42.2424 11.7698 42.2769C13.4751 42.4641 15.0592 43.1006 16.6173 43.7055C21.1734 45.4767 25.1178 48.1581 28.1908 52.0203C30.6203 55.0732 32.19 58.5351 33.0326 62.3253C33.1797 62.9906 33.3153 63.1346 33.9761 62.8639C39.5219 60.6001 45.0908 58.3853 50.6366 56.1187C57.0163 53.5093 63.37 50.8366 69.7642 48.2647C70.4797 47.9766 70.8404 47.5763 70.8577 46.9513C70.8779 46.263 71.0713 45.615 71.1088 44.9381C71.2531 42.4411 71.0482 39.97 70.4826 37.542C69.666 34.0341 68.1137 30.9409 65.4995 28.3632C63.8894 26.7762 61.9937 25.676 60.1037 24.524C64.9657 24.3742 69.2304 25.774 72.892 29.0947C76.4555 32.3291 78.4464 36.3612 79.2688 40.9809C79.7276 43.5499 79.9584 46.1823 79.7016 48.809C79.2976 52.9448 78.5965 57.0288 77.3125 60.9947C76.9893 61.997 76.6719 62.9992 76.3516 64.0044C74.9695 63.9468 73.9827 62.9877 72.8314 62.4232C72.1331 62.0805 71.53 61.539 70.8866 61.084C70.7337 60.1825 70.5807 59.2839 70.4076 58.2701C68.7687 59.1917 67.2105 60.0299 65.687 60.9256C60.6346 63.895 55.6082 66.9133 50.5385 69.8568C45.5871 72.7311 40.5895 75.5248 35.641 78.4049C35.2226 78.6468 34.4176 78.8571 34.6426 79.6549C34.9745 80.8328 35.2168 82.0425 35.7477 83.1887C36.244 82.9785 36.6971 82.8086 37.0029 82.3967ZM72.2254 42.2798C72.2514 42.3374 72.2629 42.395 72.2572 42.4555C71.8994 43.5413 72.6467 44.2584 73.2469 44.8921C74.3635 46.07 75.5091 46.214 77.021 44.8834C78.5128 43.5701 78.5013 40.2061 77.3904 38.6854C76.3401 37.2483 74.2856 37.2252 73.3825 38.1641C72.2889 39.3018 71.7407 40.6612 72.2225 42.274L72.2254 42.2798Z" fill="#F3F0E4"/>
<path d="M55.9545 24.6854C56.2488 25.2787 56.9067 25.175 57.3799 25.3478C62.9748 27.3898 66.4806 31.373 68.2868 36.9344C68.8899 38.7892 69.2131 40.7074 69.3487 42.6687C69.4179 43.6681 69.5045 44.6617 69.5189 45.664C69.5276 46.1392 69.3775 46.4128 68.9101 46.6058C64.9801 48.2187 61.0559 49.8546 57.1346 51.4904C53.9174 52.8355 50.7087 54.2006 47.4886 55.5399C43.2614 57.2967 39.0314 59.0392 34.7985 60.7845C34.683 60.8335 34.559 60.8565 34.3945 60.9055C33.8434 60.2517 33.8953 59.4021 33.6789 58.6763C32.6315 55.1597 30.9089 52.055 28.4563 49.3217C26.4134 47.0465 23.9723 45.2925 21.3004 43.8899C18.9689 42.6658 16.4875 41.7384 13.9079 41.1365C13.5184 41.0443 13.201 40.8398 12.8374 40.7246C13.2183 39.8232 14.1214 39.5524 14.8687 39.1665C20.2876 36.3555 25.7959 33.7202 31.4456 31.3989C36.3854 29.3713 41.4552 27.7095 46.5797 26.2205C48.2215 25.8662 49.8633 25.5264 51.4994 25.1548C52.5122 24.9273 53.5682 24.9763 54.555 24.527C54.9301 24.357 55.4611 24.7746 55.9545 24.6825V24.6854ZM62.0139 43.8639C62.0428 43.7343 62.011 43.6681 61.8638 43.7027C60.1037 44.2326 58.4388 44.9987 56.7278 45.7159C57.0971 46.5885 57.4318 47.3518 57.7435 48.1236C57.8906 48.4923 58.0868 48.5988 58.4908 48.4865C59.4459 48.2158 60.4154 47.9854 61.3849 47.7636C61.8725 47.6542 62.0745 47.4151 62.0514 46.8938C62.0052 45.8858 62.0254 44.8749 62.0168 43.8639H62.0139ZM62.4698 43.1958C62.7901 43.9849 63.1017 44.6992 63.3701 45.4278C63.5461 45.9059 63.8029 46.1047 64.3309 45.9549C65.2629 45.6899 66.2035 45.4509 67.15 45.2349C67.5193 45.1514 67.7473 45.0102 67.7444 44.607C67.7415 43.4809 67.7444 42.3519 67.7444 41.0962C65.9179 41.8248 64.2328 42.4959 62.4698 43.1986V43.1958Z" fill="#D1D3C8"/>
<path d="M46.5797 26.2233C41.4523 27.7123 36.3826 29.3712 31.4456 31.4017C25.7959 33.7231 20.2905 36.3584 14.8688 39.1693C14.1214 39.5553 13.2183 39.826 12.8374 40.7275C11.6255 40.5921 10.8119 41.5339 9.76732 41.8593C8.28709 39.2327 7.3147 36.3929 6.40867 33.5416C5.39588 30.3533 4.85054 27.0528 4.45235 23.7378C4.02819 20.224 3.97914 16.6873 4.01376 13.1505C4.01953 12.5371 4.24171 12.3038 4.80437 12.1569C6.12301 11.817 7.42723 11.4081 8.73722 11.0365C19.3152 8.0297 29.8932 5.02575 40.4712 2.02181C40.7829 1.93253 41.1032 1.87204 41.3109 1.58691C41.7322 1.65316 42.1448 1.56099 42.7334 1.40259C42.1621 10.0314 43.3827 18.2886 46.5768 26.2262L46.5797 26.2233Z" fill="#F3F0E4"/>
<path d="M33.2086 88.4651C30.3 87.2094 27.3857 85.9623 24.4801 84.698C20.8964 83.1398 17.3127 81.5759 13.7348 80.0034C12.1795 79.3179 10.6502 78.5749 9.08343 77.9182C8.64773 77.7368 8.64773 77.3825 8.56405 77.0916C7.306 72.6591 6.07393 68.2209 4.83319 63.7827C3.39624 58.6388 1.95641 53.4978 0.522345 48.354C0.505032 48.2964 0.530997 48.2244 0.536768 48.161C2.85089 48.0717 5.07556 48.6161 7.28003 49.2036C9.45565 49.7825 11.5332 50.6033 13.5645 51.6114C17.2925 53.4604 20.4809 55.9603 23.1788 59.0737C25.1928 61.3951 26.8087 63.9814 28.1879 66.7549C29.7749 69.949 30.831 73.2956 31.6793 76.723C32.6344 80.5737 32.9575 84.5165 33.2028 88.4623L33.2086 88.4651Z" fill="#F3F0E4"/>
<path d="M9.12384 42.1387C8.59869 42.5276 8.07353 42.9221 7.41565 43.069C5.94985 40.4107 4.92264 37.5738 4.01084 34.6908C3.05576 31.6667 2.38345 28.5792 1.8987 25.4486C1.51782 22.9976 1.32738 20.5322 1.28699 18.0525C1.25236 16.1026 1.03885 14.1557 1.09945 12.2001C1.11964 11.5924 1.26392 11.3188 1.91314 11.1287C13.3395 7.75323 24.7571 4.34031 36.1748 0.936032C37.2886 0.604821 38.4081 0.29377 39.4411 0C39.8711 0.331211 39.5421 0.823708 39.9288 1.03684C39.8191 1.09732 39.7152 1.17796 39.5998 1.21252C33.2346 3.0385 26.8722 4.86449 20.504 6.68183C14.8659 8.29469 9.22771 9.9133 3.57803 11.4887C2.83358 11.6961 2.60852 12.0359 2.64604 12.7761C2.76434 15.0773 2.62007 17.3785 2.8134 19.6884C2.98364 21.7476 3.1683 23.8127 3.49724 25.8431C4.15801 29.9242 5.18233 33.9305 6.80394 37.7495C7.45028 39.2702 8.09086 40.8139 9.12384 42.1416V42.1387Z" fill="#F3F0E4"/>
<path d="M9.12383 42.1389C8.09084 40.814 7.45026 39.2674 6.80393 37.7467C5.18231 33.9277 4.15799 29.9215 3.49723 25.8404C3.16829 23.8099 2.98651 21.7478 2.81338 19.6856C2.62006 17.3758 2.76432 15.0746 2.64602 12.7734C2.60851 12.0332 2.83357 11.6933 3.57801 11.486C9.22769 9.91055 14.8658 8.29193 20.504 6.67908C26.8693 4.85885 33.2345 3.03575 39.5998 1.20977C39.7181 1.17521 39.8191 1.09456 39.9288 1.03408C40.3356 0.970718 40.7453 0.907356 41.1551 0.843994C41.3801 1.05424 41.233 1.34225 41.3109 1.5813C41.1031 1.86355 40.7828 1.92691 40.4712 2.01619C29.8932 5.02014 19.3152 8.02408 8.73717 11.0309C7.4243 11.4024 6.12297 11.8114 4.80432 12.1513C4.24166 12.2953 4.01948 12.5314 4.01371 13.1449C3.97909 16.6817 4.02815 20.2213 4.45231 23.7321C4.8505 27.0443 5.39583 30.3448 6.40862 33.536C7.31465 36.3902 8.28705 39.2271 9.76727 41.8537C9.55375 41.9488 9.33735 42.0409 9.12383 42.136V42.1389Z" fill="#D1D3C8"/>
<path d="M60.1066 24.5239C61.9965 25.6731 63.8951 26.7733 65.5023 28.3631C68.1165 30.9408 69.6689 34.034 70.4855 37.542C71.051 39.9699 71.2559 42.441 71.1116 44.9381C71.0712 45.6149 70.8808 46.2658 70.8606 46.9513C70.8433 47.5791 70.4797 47.9766 69.767 48.2646C63.3729 50.8394 57.0192 53.5121 50.6395 56.1186C45.0937 58.3853 39.5248 60.5972 33.9789 62.8638C33.3182 63.1345 33.1826 62.9877 33.0354 62.3252C32.1929 58.5379 30.6203 55.076 28.1936 52.0202C25.1235 48.158 21.1792 45.4766 16.6202 43.7054C15.062 43.0977 13.475 42.4641 11.7726 42.2769C11.4552 42.2423 11.0195 42.1761 11.1638 41.4387C22.6969 44.0827 30.7242 50.4419 33.7683 62.354C35.7073 61.562 37.4876 60.8333 39.2708 60.1104C43.4865 58.4054 47.7107 56.7234 51.9148 54.9954C56.6556 53.0456 61.3791 51.0554 66.1112 49.0854C67.2307 48.6188 68.3387 48.1119 69.4843 47.7174C70.0469 47.5244 70.2316 47.15 70.2893 46.6834C70.6327 43.9761 70.6355 41.2631 70.0844 38.5875C69.5073 35.7822 68.5407 33.1383 66.795 30.7881C64.9628 28.3199 62.6342 26.5486 59.8902 25.2382C59.6622 25.1287 58.9582 25.1835 59.3304 24.5239C59.5901 24.5239 59.8527 24.5239 60.1123 24.5239H60.1066Z" fill="#D1D3C8"/>
<path d="M33.2086 88.4652C32.9604 84.5166 32.6373 80.5766 31.6851 76.7259C30.8368 73.2986 29.7807 69.949 28.1937 66.7579C26.8144 63.9872 25.1986 61.4009 23.1846 59.0766C20.4838 55.9633 17.2983 53.4633 13.5703 51.6143C11.5361 50.6063 9.46144 49.7826 7.28582 49.2065C5.07846 48.6219 2.85667 48.0747 0.542553 48.1639C0.349229 47.9278 0.242458 47.6715 0.352105 47.3633C5.42182 47.755 10.2434 49.0568 14.6985 51.5106C20.0625 54.4656 24.2695 58.636 27.3684 63.9296C28.8977 66.5419 29.9855 69.3356 31.1109 72.1264C31.4888 73.0624 31.5812 74.0301 31.8899 74.9575C32.0313 75.3838 32.1612 75.8129 32.6748 76.0318C32.3805 76.6164 32.5593 77.1349 32.6459 77.7166C32.7873 78.6642 32.9893 79.6175 33.1307 80.5679C33.3298 81.9158 33.1797 83.3242 33.7539 84.6145C33.8059 84.7297 33.8665 84.8881 33.8261 84.986C33.324 86.2072 33.9703 87.4168 33.852 88.6293C33.6241 88.6409 33.3615 88.7762 33.2143 88.4652H33.2086Z" fill="#1B3D2F"/>
<path d="M37.0029 82.3966C36.6999 82.8085 36.244 82.9755 35.7477 83.1886C35.2197 82.0424 34.9745 80.8327 34.6426 79.6548C34.4176 78.857 35.2255 78.6467 35.641 78.4048C40.5866 75.5247 45.5871 72.731 50.5385 69.8567C55.6082 66.9132 60.6317 63.8949 65.687 60.9255C67.2105 60.0298 68.7658 59.1917 70.4076 58.27C70.5807 59.2809 70.7337 60.1824 70.8866 61.0839C70.5923 60.888 70.2777 60.7181 70.0123 60.4906C68.9043 59.5401 68.9303 59.5661 67.5914 60.361C63.4652 62.8062 59.3131 65.2082 55.1898 67.6563C52.1312 69.4707 49.0611 71.2679 46.0516 73.1688C43.5673 74.7384 40.9531 76.1036 38.4023 77.5667C37.6839 77.9785 37.0029 78.4566 36.27 78.8368C35.8228 79.0701 35.742 79.2947 35.9411 79.7498C36.3248 80.6196 36.6509 81.5153 37.0029 82.3966Z" fill="#1B3D2F"/>
<path d="M79.8112 73.0508C78.8994 73.9494 77.9818 74.8422 77.0729 75.7466C71.6858 81.1122 66.3016 86.4807 60.9087 91.8406C60.6029 92.143 60.3085 92.7536 59.7516 92.1113C62.4524 88.9921 79.0956 72.9241 79.8112 73.0508Z" fill="#1B3D2F"/>
<path d="M51.4618 87.7162C58.3984 81.8321 65.335 75.9481 72.2831 70.0756C72.4043 69.9719 72.6611 70.0093 72.941 70.2973C65.9784 76.1929 59.0274 82.0798 52.0764 87.9696C51.8715 88.1424 51.7273 88.0675 51.4589 87.7191L51.4618 87.7162Z" fill="#1B3D2F"/>
<path d="M81.9984 74.9632C79.3553 77.852 76.6892 80.7234 74.0721 83.641C71.6281 86.3655 69.2246 89.1275 66.6969 91.7772C66.342 92.1488 66.0304 92.5664 65.7159 92.9754C65.4389 93.3382 65.1503 93.2864 64.7291 92.9869C65.5543 92.0566 66.4257 91.1983 67.2279 90.2882C69.3487 87.8833 71.5618 85.5591 73.723 83.1888C76.1871 80.4844 78.634 77.7684 81.0924 75.0583C81.3376 74.7875 81.5512 74.3238 81.9984 74.9661V74.9632Z" fill="#1B3D2F"/>
<path d="M43.6539 81.3398C48.1234 78.2494 52.6218 75.136 57.1202 72.0255C59.1891 70.5941 61.2723 69.1829 63.321 67.7198C63.7654 67.403 63.8548 67.6622 64.1145 67.9963C57.3106 72.5411 50.7636 77.3681 43.9136 81.7574C43.8818 81.7775 43.6452 81.5932 43.6568 81.3398H43.6539Z" fill="#1B3D2F"/>
<path d="M46.4383 84.3007C45.8208 83.8254 46.4556 83.5778 46.7066 83.3733C47.6184 82.6273 48.5851 81.9447 49.5171 81.2218C51.7792 79.465 54.0241 77.688 56.2949 75.9426C57.2212 75.2312 58.1993 74.5803 59.2785 74.0562C57.5126 76.1817 55.1523 77.6188 53.0402 79.3325C50.9049 81.0634 48.6485 82.6475 46.4412 84.3007H46.4383Z" fill="#1B3D2F"/>
<path d="M63.6528 82.2153C64.1866 82.4342 64.0539 82.7366 63.6961 83.039C61.6099 84.8017 59.518 86.5556 57.4347 88.3211C57.1375 88.5717 56.9095 88.9087 56.5979 89.1333C56.4161 89.2629 56.1507 89.5769 55.8852 89.2341C55.6342 88.9087 55.9776 88.7532 56.1507 88.6178C57.1144 87.8632 58.0262 87.051 58.938 86.2331C60.4673 84.8621 62.0629 83.5661 63.6586 82.2153H63.6528Z" fill="#1B3D2F"/>
<path d="M72.2254 42.2799C71.7435 40.667 72.2918 39.3076 73.3853 38.17C74.2885 37.2311 76.3429 37.2541 77.3932 38.6913C78.5041 40.212 78.5157 43.5759 77.0239 44.8893C75.5119 46.2199 74.3664 46.0759 73.2497 44.8979C72.6496 44.2643 71.9022 43.5443 72.26 42.4613C72.4533 42.5247 72.4129 42.7061 72.4735 42.8473C72.8717 43.8063 73.319 44.7597 74.5453 44.8345C76.6747 44.9699 78.0396 43.0287 77.4711 40.9176C77.0152 39.227 74.9666 38.1153 73.5325 39.2241C72.5688 39.9701 72.2947 41.1048 72.2254 42.2828V42.2799Z" fill="white"/>
<path d="M72.2255 42.2798C72.2947 41.1018 72.5688 39.9671 73.5326 39.2211C74.9666 38.1094 77.0153 39.2211 77.4712 40.9146C78.0396 43.0228 76.6748 44.964 74.5453 44.8315C73.319 44.7538 72.8718 43.8033 72.4736 42.8443C72.4159 42.7031 72.4534 42.5246 72.2601 42.4583C72.263 42.3979 72.2543 42.3374 72.2283 42.2827L72.2255 42.2798ZM75.108 39.5437C75.5091 40.6496 75.3908 41.7326 75.385 42.8097C75.385 43.043 75.587 43.4635 75.082 43.4549C74.6492 43.4491 74.7993 43.0747 74.8166 42.8673C74.9176 41.7614 74.4444 40.7072 74.6319 39.5955C73.4922 39.7309 72.9699 40.6496 73.0478 42.251C73.1055 43.4232 73.7951 44.2123 74.7993 44.2469C75.9736 44.2872 76.8364 43.4174 76.9605 42.058C77.073 40.8224 76.3776 39.7856 75.108 39.5437Z" fill="#1B3D2F"/>
<path d="M62.0139 43.8669C62.0225 44.8778 62.0023 45.8887 62.0485 46.8967C62.0716 47.418 61.8696 47.6542 61.382 47.7665C60.4124 47.9854 59.4458 48.2187 58.4879 48.4894C58.0839 48.6046 57.8877 48.4981 57.7405 48.1265C57.4318 47.3518 57.0942 46.5885 56.7249 45.7188C58.4388 45.0016 60.1008 44.2384 61.8609 43.7056C61.91 43.7603 61.9619 43.815 62.011 43.8697L62.0139 43.8669Z" fill="#1B3D2F"/>
<path d="M62.4698 43.1987C64.2328 42.4959 65.9179 41.8249 67.7444 41.0962C67.7444 42.3519 67.7444 43.4809 67.7444 44.607C67.7444 45.0131 67.5193 45.1514 67.15 45.2349C66.2035 45.448 65.2629 45.69 64.3309 45.9549C63.8057 46.1047 63.5461 45.906 63.37 45.4279C63.1017 44.6992 62.7901 43.9878 62.4698 43.1958V43.1987Z" fill="#D1D3C8"/>
<path d="M62.0139 43.8669C61.9648 43.8121 61.9129 43.7574 61.8638 43.7027C62.011 43.6681 62.0456 43.7373 62.0139 43.8669Z" fill="#1B3D2F"/>
<path d="M75.1109 39.5466C76.3805 39.7886 77.0788 40.8254 76.9633 42.061C76.8393 43.4204 75.9765 44.2902 74.8022 44.2498C73.798 44.2153 73.1055 43.4261 73.0507 42.2539C72.9728 40.6526 73.4979 39.7367 74.6348 39.5985C74.4472 40.7102 74.9205 41.7643 74.8195 42.8703C74.7993 43.0776 74.6521 43.452 75.0849 43.4578C75.5928 43.4664 75.3879 43.046 75.3879 42.8127C75.3937 41.7355 75.512 40.6555 75.1109 39.5466Z" fill="white"/>
</svg>
