<svg width="130" height="76" viewBox="0 0 130 76" fill="none" xmlns="http://www.w3.org/2000/svg">
<path d="M0.00378963 5.19924C1.4273 1.7453 4.19103 0.592731 7.73087 0.309312C9.60112 0.161934 11.3767 0.279082 13.1637 0.641859C16.1129 1.24271 17.3774 3.68012 17.5516 6.17043C17.9453 11.8048 15.863 16.8308 13.6672 21.8265C13.3984 22.4349 13.175 23.066 12.9327 23.6858C12.1453 24.6947 11.831 26.006 10.8959 26.9848C9.957 25.9229 9.07109 24.9252 8.18518 23.9238C7.47342 22.8922 6.79953 21.8341 6.04613 20.8327C3.65342 17.6546 1.89675 14.144 0.484599 10.4482C0.386164 10.195 0.166581 9.98714 0 9.76041C0 8.2375 0 6.71837 0 5.19546L0.00378963 5.19924ZM8.81364 3.9333C7.20841 3.92197 5.87576 5.47133 5.84548 7.38346C5.8114 9.47321 7.20085 11.3022 8.80987 11.2833C10.5703 11.2644 11.9181 9.66594 11.9484 7.65555C11.9825 5.3504 10.1955 3.86528 8.81364 3.9333Z" fill="#F3F0E4"/>
<path d="M100.8 69.8225C100.414 65.6241 100.577 61.4182 100.615 57.216C100.645 54.019 101.107 50.8485 101.72 47.7007C102.148 45.5089 102.784 43.404 103.64 41.3596C104.791 38.6124 106.51 36.2619 109.266 35.0035C111.798 33.8433 114.49 34.1532 117.072 34.9884C121.154 36.3034 124.871 38.2911 127.737 41.5561C130.179 44.3412 130.758 47.6515 128.915 51.7517C127.608 54.6501 125.469 56.9855 123.134 59.0904C120.51 61.4522 117.716 63.6213 114.714 65.4843C112.086 67.113 109.383 68.6246 106.718 70.1891C104.938 71.0847 103.155 71.9803 101.202 72.9666C101.05 71.7611 100.929 70.7937 100.808 69.8225H100.8ZM120.934 46.4876C120.923 44.2618 120.514 42.6823 118.954 41.7866C117.508 40.9591 115.944 40.9402 114.471 41.8925C111.992 43.4985 110.534 46.6312 111.583 49.6997C112.366 51.9897 114.873 52.9912 117.099 51.9709C119.666 50.7956 120.805 48.7059 120.938 46.4839L120.934 46.4876Z" fill="#FFC400"/>
<path d="M38.8891 46.4839C38.7604 45.3465 37.9123 44.6776 37.0378 44.3073C35.7619 43.7669 34.4785 45.3994 34.8268 47.0432C35.0843 48.2449 35.3682 49.4428 35.7241 50.6143C35.9399 51.3323 35.7127 51.6573 35.0805 51.9747C33.0096 53.0139 33.0247 53.0328 31.6618 51.1698C31.393 50.7995 31.0674 50.4707 30.7683 50.1231C31.4876 49.9606 31.8284 49.5335 31.7716 48.7778C31.7148 47.9766 31.0636 47.954 30.5222 47.8028C30.2875 47.7386 30.0187 47.7915 29.765 47.7877C29.6325 45.116 29.2463 44.2241 33.8538 42.8259C32.8657 41.1368 31.8851 39.4778 31.1242 37.7017C29.9884 35.0527 29.2198 32.3016 29.2653 29.4296C29.2918 27.8727 29.7537 26.3272 30.2155 24.7853C31.003 22.1477 32.4947 20.0919 34.4709 18.3536C37.0491 16.0863 40.0022 14.4349 43.2656 13.2521C45.7113 12.3678 48.1533 11.5364 50.6823 10.9356C51.2805 10.792 51.8332 10.8298 52.4617 10.7844C54.3243 17.4429 56.1832 24.0938 58.0686 30.8354C59.6095 29.1991 60.6014 27.3664 62.3429 26.1798C63.1569 25.6243 64.0693 24.9403 64.8568 24.6909C65.8411 24.3772 67.2533 24.1958 68.3361 24.9856C68.8623 25.3673 68.6654 26.0551 68.7904 26.5803C69.2295 28.4207 69.4908 30.3026 69.8088 32.1694C69.8997 32.706 69.7217 33.1103 69.2182 33.39C67.4274 34.3876 65.6443 35.3966 63.8725 36.4207C63.3046 36.7494 62.9487 36.7192 62.5587 36.1146C62.2899 35.7027 61.9795 35.3134 61.7372 34.8751C61.4381 34.3309 61.1012 33.8056 60.7377 33.2993C60.1395 32.4679 59.2991 32.1505 58.3071 32.347C57.425 32.5208 57.2963 33.4278 57.2698 33.9984C57.2168 35.0489 57.1146 36.2015 57.8793 37.1349C57.8528 37.9322 58.6327 38.5369 58.4321 39.3796C55.9296 40.6795 53.4157 41.9568 50.9284 43.2832C47.9905 44.8477 45.0791 46.4726 42.1374 48.0295C41.49 48.3734 40.9752 48.9818 40.1839 49.0536C39.9984 48.0749 39.5744 47.2095 38.8929 46.4764L38.8891 46.4839ZM56.9707 31.5345C54.9339 26.142 52.9236 20.9006 50.9889 15.629C50.6141 14.6087 50.3075 14.3291 49.0846 14.5104C44.939 15.1151 41.7702 17.1368 39.2563 20.3829C38.8777 20.8742 38.8853 21.1576 39.1617 21.6828C41.278 25.6885 43.3452 29.7131 45.4274 33.7376C45.9385 34.7277 46.4382 35.7216 46.991 36.8099C50.3491 35.0338 53.6012 33.3182 56.9707 31.5383V31.5345ZM36.22 22.688C35.7392 22.9412 35.2963 22.9752 34.8836 23.236C32.1539 24.9743 30.9311 28.1713 31.8549 31.5081C32.8241 35.0036 34.505 38.1665 36.4283 41.2275C36.9394 42.0399 37.3217 42.0021 38.0297 41.6091C40.5511 40.1996 43.0915 38.8316 45.7114 37.3994C42.5766 32.5397 39.4343 27.6649 36.2238 22.688H36.22ZM68.3209 30.5747C68.4799 29.7886 68.143 29.1236 67.8818 28.4245C67.6584 27.8236 67.2571 27.7027 66.7081 27.7669C66.091 27.8387 66.0796 28.2809 66.0229 28.7683C65.9471 29.4561 66.1402 30.0947 66.322 30.7145C66.5113 31.3645 66.7535 32.1656 67.6773 32.0598C68.6579 31.9502 68.1808 31.0962 68.3171 30.5747H68.3209Z" fill="#F3F0E4"/>
<path d="M100.8 69.8228C100.922 70.794 101.043 71.7651 101.194 72.9668C103.151 71.9805 104.931 71.0849 106.71 70.1893C107.645 70.7902 108.796 70.8015 109.762 71.357C111.269 72.2224 111.352 73.1142 109.89 74.0514C108.656 74.845 107.225 75.1057 105.813 75.3173C101.096 76.0164 96.4163 75.9824 91.8391 74.4104C91.0592 74.1421 90.268 73.8209 90.2112 72.8761C90.1582 71.973 90.9229 71.6404 91.6044 71.2663C92.9749 70.5105 94.6029 69.9626 95.9734 69.9021C97.5407 69.8303 99.1876 69.5885 100.793 69.8228H100.8Z" fill="#F3F0E4"/>
<path d="M8.18522 23.9274C9.07113 24.925 9.95703 25.9264 10.8959 26.9883C11.8311 26.0058 12.1453 24.6983 12.9328 23.6893C15.2043 23.5986 17.3812 23.9652 19.4181 25.0157C20.1639 25.4012 20.834 25.8886 20.7999 26.8069C20.7696 27.6534 20.1488 28.1295 19.4294 28.4772C16.4575 29.917 13.2924 30.2268 10.063 29.9359C8.1398 29.762 6.22033 29.4408 4.4788 28.4923C2.63505 27.4871 2.56691 26.1796 4.35008 25.1026C5.51993 24.396 6.81472 24.0256 8.18144 23.9274H8.18522Z" fill="#D1D3C8"/>
<path d="M38.889 46.4841C39.5705 47.2172 39.9907 48.0825 40.18 49.0613C39.9794 50.4406 40.4791 51.9068 39.6765 53.2143C41.0811 53.6073 40.9713 55.0698 41.7398 55.9881C40.7896 56.6191 39.8734 57.1293 38.8095 57.4845C38.2341 56.6418 38.2303 55.5837 37.5791 54.9451C37.757 54.3556 38.3476 54.4387 38.6013 53.9399C36.1859 52.7835 36.0193 50.3801 35.6104 48.1657C35.4438 47.2739 35.6293 46.0986 36.4774 45.6187C37.3671 45.1161 38.2719 45.6603 38.8928 46.4803L38.889 46.4841ZM38.6127 49.6961C38.6127 49.6961 38.6051 49.6961 38.6013 49.6961C38.6013 49.322 38.6808 48.9215 38.5824 48.5776C38.4423 48.0825 38.0523 47.7311 37.5602 47.5648C37.2384 47.4552 36.9241 47.6593 36.8938 47.9578C36.7916 48.9404 36.6288 49.9531 37.2573 50.8374C37.4277 51.0755 37.6132 51.4798 38.041 51.2682C38.3628 51.1095 38.7149 50.9432 38.624 50.4482C38.5786 50.2063 38.6164 49.9493 38.6164 49.6961H38.6127Z" fill="#F3F0E4"/>
<path d="M58.4244 39.3833C58.6251 38.5406 57.849 37.9397 57.8717 37.1386C57.8868 36.466 57.9096 35.7895 57.9096 35.1131C57.9096 34.346 58.1481 33.6884 58.9393 33.4768C59.6284 33.2917 60.2455 33.7149 60.6165 34.1948C62.0589 36.0503 62.5398 38.2231 62.1309 40.4943C61.9757 41.3521 62.2785 41.4126 62.9562 41.5108C62.676 42.4744 63.9103 43.3965 63.3159 44.175C62.8426 44.7947 61.7371 44.9307 60.7793 45.3389C60.378 44.379 59.9918 43.4532 59.5716 42.4442C60.0373 42.2401 60.4272 42.0701 60.8777 41.8698C59.6019 41.4352 59.1362 40.2902 58.4207 39.3795L58.4244 39.3833ZM60.9724 37.2595C61.0292 36.5642 60.7679 35.884 60.0827 35.4494C59.8252 35.2869 59.4202 35.2529 59.2081 35.627C58.8144 36.3148 58.7803 37.0215 59.1362 37.7394C59.1892 37.849 59.2119 37.9737 59.2574 38.0909C59.2725 38.1287 59.3028 38.1589 59.3217 38.1967C59.5072 38.6464 59.7647 39.0696 60.3212 38.9034C61.1049 38.6691 60.9421 37.9662 60.9724 37.2595Z" fill="#F3F0E4"/>
<path d="M96.6321 58.7275H99.7744V61.8527C95.9658 62.1512 96.4466 62.378 96.6321 58.7275Z" fill="#F3F0E4"/>
<path d="M84.9223 38.5861C86.1035 38.9375 87.1143 39.236 88.1933 39.5572C87.8942 40.434 87.6481 41.2502 87.3301 42.0362C87.2127 42.3234 87.0083 42.5539 86.5388 42.3348C86.0353 42.1005 85.3993 42.1571 84.892 41.9342C84.2446 41.6508 83.7865 41.1217 84.3203 40.3924C84.7027 39.8747 84.839 39.3078 84.9223 38.5823V38.5861Z" fill="#F3F0E4"/>
<path d="M35.8944 58.7882C35.0501 59.117 34.3157 59.4646 33.5433 59.6838C33.0171 59.8312 32.5476 59.6838 32.5098 58.9658C32.4719 58.2667 32.1198 57.6545 31.8245 57.0348C31.9608 56.9592 32.1047 56.8874 32.2448 56.8081C35.0994 55.2133 34.539 55.6555 35.6862 58.1949C35.7543 58.3423 35.796 58.501 35.8944 58.7882Z" fill="#F3F0E4"/>
<path d="M4.64154 32.7777C5.19807 31.8481 5.74325 30.9487 6.32628 29.9775C7.27277 30.4348 8.13595 30.9525 8.87421 31.6554C7.91258 33.5247 6.50169 33.8975 4.64154 32.7739V32.7777Z" fill="#F3F0E4"/>
<path d="M97.8701 48.9062C96.8593 49.337 95.9317 49.7338 95.1178 50.0777C94.7051 50.0059 94.7429 49.7376 94.6559 49.5713C93.5958 47.5345 93.7472 47.081 95.7803 46.1287C96.1021 45.9775 96.3368 45.9397 96.5678 46.3705C96.988 47.1603 97.5332 47.8821 97.8701 48.9062Z" fill="#F3F0E4"/>
<path d="M95.803 67.7519C95.9961 66.7202 96.174 65.7755 96.3747 64.6985C97.3476 65.4996 99.1422 64.2752 99.5056 66.1685C99.6457 66.8978 99.2633 67.8388 98.7825 68.1184C97.8171 68.6777 96.7722 68.0126 95.803 67.7519Z" fill="#F3F0E4"/>
<path d="M65.6177 40.2563C66.5831 39.8104 67.6091 39.5798 68.9342 39.3267C68.3019 40.5095 70.5697 41.8737 68.4988 42.671C66.4885 43.4419 66.4204 43.2681 65.6177 40.2563Z" fill="#F3F0E4"/>
<path d="M10.3129 62.5142C9.15815 62.1211 8.10187 61.7281 7.16296 60.9572C7.63621 60.0579 8.08673 59.1736 8.85527 58.3838C9.52917 59.0149 10.911 58.841 11.0814 59.7593C11.2328 60.5718 10.6157 61.5279 10.3091 62.5179L10.3129 62.5142Z" fill="#F3F0E4"/>
<path d="M99.1762 52.0806C99.0475 53.2369 99.3882 54.227 99.6002 55.2246C98.5591 55.6479 97.5066 55.731 96.3443 55.6101C96.2194 54.9941 96.2307 54.3404 96.049 53.7168C95.8749 53.1122 96.0301 52.6021 96.9236 52.5907C97.6353 52.5794 98.3395 52.2808 99.1762 52.0806Z" fill="#F3F0E4"/>
<path d="M23.5561 62.4198C22.5263 62.6428 21.595 63.1265 20.5349 62.9904C19.5392 60.0278 19.9784 59.4194 23.0374 59.5478C23.2191 59.9975 23.0828 60.5077 23.3214 60.9838C23.5258 61.3882 23.2684 61.9399 23.5523 62.4198H23.5561Z" fill="#F3F0E4"/>
<path d="M94.0235 43.2077C93.4102 44.1033 92.4675 44.5832 92.017 45.6262C91.2977 44.8969 90.5216 44.383 89.7114 43.9257C91.4226 40.4189 91.256 40.9215 94.0235 43.2077Z" fill="#F3F0E4"/>
<path d="M72.4475 41.6584C72.2355 40.7023 72.0349 39.7916 71.8342 38.8733C72.9473 38.314 74.1096 38.4879 75.2983 38.28C75.2037 39.2021 75.022 40.0901 75.5255 40.9631C74.5904 41.5904 73.6325 41.8209 72.4475 41.6584Z" fill="#F3F0E4"/>
<path d="M48.4334 48.7097C49.4367 48.3016 50.0576 47.3984 51.1366 47.2737C51.6325 48.0332 52.1247 48.7815 52.6396 49.575C51.9695 50.4366 50.9927 50.8032 50.0652 51.4721C49.5162 50.55 49.0127 49.6922 48.4296 48.7135L48.4334 48.7097Z" fill="#F3F0E4"/>
<path d="M4.72482 51.8918C3.72155 51.6424 2.85836 52.1827 1.94595 52.0996C1.53707 51.034 1.42728 49.991 1.59386 48.8346C1.81723 48.8233 2.01788 48.8082 2.21475 48.8044C4.92926 48.7553 5.06177 48.9102 4.72482 51.888V51.8918Z" fill="#F3F0E4"/>
<path d="M43.1709 52.0656C45.1472 49.9646 46.1239 50.2366 47.2408 53.1313C43.9887 54.8885 44.8859 55.0548 43.1709 52.0656Z" fill="#F3F0E4"/>
<path d="M25.926 58.7883C26.8612 58.52 27.7925 58.2555 28.7882 57.9683C29.428 58.7694 29.4431 59.8199 29.765 60.8025C28.8525 61.3731 27.8379 61.4864 26.8081 61.7623C26.5091 60.7609 26.2251 59.7935 25.926 58.7883Z" fill="#F3F0E4"/>
<path d="M53.8473 45.4522C54.419 44.7342 55.32 44.6586 55.9447 44.1069C56.293 43.8008 56.6981 44.02 56.9101 44.5112C57.2168 45.2141 57.5916 45.8905 57.9361 46.5745C57.2963 47.3983 56.2059 47.353 55.4677 48.003C54.737 47.2623 54.3432 46.3176 53.8473 45.4522Z" fill="#F3F0E4"/>
<path d="M4.26296 58.4745C3.661 57.4882 2.83945 56.6644 2.63123 55.493C3.48306 54.9715 4.47497 54.7258 5.45174 54.3857C5.87576 55.1302 6.14457 55.954 6.88283 56.6077C5.90606 57.1821 5.28517 58.0513 4.26675 58.4745H4.26296Z" fill="#F3F0E4"/>
<path d="M16.9799 60.2358V63.1229C16.8663 63.1795 16.7944 63.2438 16.7225 63.2476C14.6629 63.2954 13.7922 62.1844 14.1102 59.9146C15.0075 60.3529 15.9729 60.1753 16.9799 60.2395V60.2358Z" fill="#F3F0E4"/>
<path d="M6.25054 36.9913C6.01203 37.8302 5.77352 38.6767 5.50851 39.6139C4.52416 39.8028 3.61554 39.2209 2.59712 39.1264C2.43054 38.1703 2.93786 37.4032 3.09308 36.5832C3.19909 36.0277 3.76697 36.0353 4.23643 36.2053C4.92168 36.4547 5.59179 36.7344 6.24675 36.9913H6.25054Z" fill="#F3F0E4"/>
<path d="M1.60149 45.7209C1.40841 44.5986 1.55985 43.5896 1.88923 42.5617C2.87735 42.2556 3.81625 42.6108 4.75517 42.8187C5.05047 43.7407 4.62645 44.5532 4.49773 45.4904C3.54367 45.3581 2.65777 45.9174 1.60149 45.7209Z" fill="#F3F0E4"/>
<path d="M78.5278 41.2991V38.2419H81.4202C81.4657 38.2948 81.5187 38.3251 81.5149 38.3553C81.477 39.3076 81.9351 40.4753 81.3218 41.1517C80.6858 41.8508 79.5689 40.8947 78.5278 41.3029V41.2991Z" fill="#F3F0E4"/>
<path d="M29.765 47.7913C30.0186 47.7913 30.2874 47.7384 30.5221 47.8064C31.0635 47.9538 31.7147 47.9803 31.7715 48.7814C31.8245 49.5372 31.4876 49.9642 30.7682 50.1267C30.064 50.4933 29.4583 50.2968 29.0797 49.6732C28.561 48.823 29.2766 48.3317 29.765 47.7951V47.7913Z" fill="#FFC400"/>
<path d="M8.81369 3.93339C10.1918 3.86537 11.9825 5.35049 11.9484 7.65564C11.9182 9.66603 10.5704 11.2607 8.80991 11.2834C7.20468 11.3023 5.81145 9.4733 5.84552 7.38355C5.87581 5.47142 7.20846 3.92206 8.81369 3.93339Z" fill="#D1D3C8"/>
<path d="M120.934 46.4838C120.801 48.7058 119.662 50.7955 117.095 51.9708C114.869 52.9911 112.363 51.9897 111.579 49.6996C110.53 46.6312 111.988 43.4984 114.468 41.8924C115.94 40.9401 117.504 40.959 118.95 41.7866C120.514 42.6784 120.923 44.2618 120.93 46.4876L120.934 46.4838Z" fill="#F3F0E4"/>
<path d="M56.9707 31.5347C53.5974 33.3146 50.3491 35.034 46.991 36.8063C46.4382 35.718 45.9385 34.7241 45.4274 33.7341C43.3451 29.7133 41.278 25.685 39.1617 21.6793C38.8853 21.154 38.8777 20.8706 39.2563 20.3793C41.7702 17.1295 44.939 15.1115 49.0846 14.5069C50.3112 14.3293 50.6141 14.6089 50.9889 15.6254C52.9235 20.8971 54.9338 26.1384 56.9707 31.531V31.5347Z" fill="#1B3D2F"/>
<path d="M36.22 22.6882C39.4305 27.6651 42.5728 32.5399 45.7076 37.3996C43.0877 38.8318 40.5435 40.1998 38.0259 41.6093C37.3217 42.0023 36.9356 42.0401 36.4245 41.2276C34.5012 38.1667 32.8203 35.0038 31.8511 31.5082C30.9273 28.1715 32.1501 24.9783 34.8798 23.2362C35.2925 22.9754 35.7354 22.9414 36.2162 22.6882H36.22Z" fill="#1B3D2F"/>
<path d="M68.3247 30.5746C68.1884 31.0999 68.6654 31.9502 67.6849 32.0598C66.7573 32.1656 66.5188 31.3644 66.3295 30.7145C66.1478 30.0947 65.9547 29.4523 66.0304 28.7683C66.0834 28.277 66.0948 27.8387 66.7157 27.7669C67.2646 27.7027 67.666 27.8236 67.8893 28.4244C68.1506 29.1235 68.4875 29.7886 68.3285 30.5746H68.3247Z" fill="#FFC400"/>
<path d="M38.6127 49.6923C38.6127 49.9417 38.5748 50.2025 38.6202 50.4443C38.7111 50.9394 38.359 51.1056 38.0372 51.2644C37.6094 51.476 37.4239 51.0716 37.2535 50.8336C36.625 49.9493 36.7878 48.9365 36.8901 47.954C36.9203 47.6593 37.2346 47.4552 37.5564 47.561C38.0486 47.7273 38.4385 48.0787 38.5786 48.5738C38.677 48.9214 38.5975 49.3182 38.5975 49.6923C38.6013 49.6923 38.6051 49.6923 38.6089 49.6923H38.6127Z" fill="#D1D3C8"/>
<path d="M60.9724 37.2633C60.9421 37.9699 61.1049 38.6728 60.3212 38.9071C59.7646 39.0734 59.5034 38.6502 59.3217 38.2005C59.3066 38.1627 59.2725 38.1324 59.2573 38.0947C59.2157 37.9775 59.193 37.8528 59.1362 37.7432C58.7803 37.0252 58.8144 36.3148 59.2081 35.6308C59.4201 35.2605 59.829 35.2945 60.0827 35.4532C60.7679 35.8878 61.0292 36.5717 60.9724 37.2633Z" fill="#D1D3C8"/>
</svg>
